<svg id="Layer_1" data-name="Layer 1" xmlns="http://www.w3.org/2000/svg" viewBox="0 0 133.69 183.95"><defs><style>.cls-1{fill:#fff;}</style></defs><polygon class="cls-1" points="84.31 0 133.69 0 133.69 118.23 84.31 0"/><polygon class="cls-1" points="49.52 0 0.1 0 0.1 118.23 49.52 0"/><polygon class="cls-1" points="66.92 43.57 98.38 118.23 77.76 118.23 68.35 94.45 45.32 94.45 66.92 43.57"/><path class="cls-1" d="M9.44,172.69,7.26,183c-.06.4-.19.46-.52.46H.48c-.4,0-.53-.13-.46-.66l8.63-37.23a13.61,13.61,0,0,0,.26-3.62.35.35,0,0,1,.4-.39h9c.33,0,.46.13.53.46L28.88,182.9c.06.4-.07.53-.4.53h-7A.47.47,0,0,1,21,183l-2.31-10.28Zm7.84-7.05c-.92-4.81-2.64-12.06-3.29-16.73h-.07c-.66,4.54-1.91,10.93-3,16.73Z" transform="translate(0)"/><path class="cls-1" d="M30,167.42c0-9.5,5.59-16.86,14.51-16.86h1V139.37c0-.2.13-.33.39-.33h7c.26,0,.32.13.32.33v37.49a29.32,29.32,0,0,0,.2,4.36.4.4,0,0,1-.26.45A21.45,21.45,0,0,1,43.71,184C35.51,184,30,178.62,30,167.42Zm15.55-9.89a3.46,3.46,0,0,0-1.43-.2c-3.65,0-6.38,3.32-6.38,9.83,0,6.9,2.73,9.76,6.31,9.76a5.55,5.55,0,0,0,1.5-.19Z" transform="translate(0)"/><path class="cls-1" d="M81.07,167.16c0,10.28-4.3,16.79-11.85,16.79-8.46,0-11.84-7.42-11.84-16.86,0-9.63,4.29-16.53,12-16.53C76.71,150.56,81.07,156.68,81.07,167.16Zm-16.08,0c0,6.05,1.3,10,4.23,10s4.17-3.38,4.17-10c0-6.12-1-9.9-4.1-9.9C66.62,157.33,65,160.39,65,167.16Z" transform="translate(0)"/><path class="cls-1" d="M92.52,139c.26,0,.33.13.33.39V151a16.18,16.18,0,0,1,3.51-.39c6.77,0,11.91,5.21,11.91,15.3,0,11.78-6.7,18.09-15.1,18.09a24.43,24.43,0,0,1-7.55-1.17.57.57,0,0,1-.39-.52V139.43a.34.34,0,0,1,.39-.39Zm2.67,18.42a8.06,8.06,0,0,0-2.34.33V177a5.31,5.31,0,0,0,1.36.13c2.93,0,6.38-3,6.45-11.07C100.72,159.74,98.18,157.46,95.19,157.46Z" transform="translate(0)"/><path class="cls-1" d="M118.81,169.05c0,5,1.89,8.07,7.16,8.07a13.32,13.32,0,0,0,4.95-.91c.33-.13.52-.13.52.32v5.4c0,.46-.13.72-.46.85a14.14,14.14,0,0,1-6.44,1.17c-9.57,0-13.28-7-13.28-16.2,0-9.77,4.3-17.19,11.92-17.19,8,0,10.34,7.1,10.34,12.89a35.71,35.71,0,0,1-.32,4.88.62.62,0,0,1-.59.52c-.65.07-2.67.2-6.18.2Zm5.54-6.12a10,10,0,0,0,2-.07,3.09,3.09,0,0,0,.06-.71c0-2.47-.78-5.08-3.45-5.08s-3.64,2.67-4,5.86Z" transform="translate(0)"/></svg>