<svg id="Layer_1" data-name="Layer 1" xmlns="http://www.w3.org/2000/svg" viewBox="0 0 39 64">
  <defs>
    <style>
      .cls-1 {
        fill: #e1251b;
      }

      .cls-2 {
        fill: #fff;
      }
    </style>
  </defs>
  <title>Artboard 1</title>
  <g>
    <rect class="cls-1" width="39" height="64"/>
    <g>
      <polygon class="cls-2" points="22.065 27.969 29.318 27.969 29.318 45.334 22.065 27.969"/>
      <polygon class="cls-2" points="16.955 27.969 9.697 27.969 9.697 45.334 16.955 27.969"/>
      <polygon class="cls-2" points="19.51 34.368 24.132 45.333 21.103 45.333 19.72 41.841 16.339 41.841 19.51 34.368"/>
      <g>
        <path class="cls-2" d="M11.069,53.332l-.32,1.51c-.01.058-.029.068-.077.068h-.92c-.058,0-.077-.02-.067-.1l1.267-5.468a1.961,1.961,0,0,0,.039-.532.051.051,0,0,1,.058-.058h1.316c.049,0,.068.019.078.067l1.48,6.01c.01.058-.009.078-.058.078H12.84a.069.069,0,0,1-.078-.068l-.339-1.51ZM12.22,52.3c-.135-.707-.387-1.771-.484-2.458h-.009c-.1.667-.281,1.606-.446,2.458Z"/>
        <path class="cls-2" d="M14.085,52.558a2.224,2.224,0,0,1,2.132-2.476h.153V48.438c0-.029.019-.048.057-.048H17.45c.038,0,.048.019.048.048v5.506a4.29,4.29,0,0,0,.028.641.06.06,0,0,1-.038.067,3.166,3.166,0,0,1-1.386.334C14.9,54.986,14.085,54.2,14.085,52.558Zm2.285-1.453a.52.52,0,0,0-.211-.029c-.535,0-.937.488-.937,1.444,0,1.013.4,1.434.928,1.434a.824.824,0,0,0,.22-.029Z"/>
        <path class="cls-2" d="M21.589,52.52c0,1.51-.631,2.466-1.74,2.466-1.243,0-1.74-1.09-1.74-2.476,0-1.414.631-2.428,1.759-2.428C20.948,50.082,21.589,50.981,21.589,52.52Zm-2.361,0c0,.889.191,1.472.621,1.472.411,0,.612-.5.612-1.463,0-.9-.153-1.453-.6-1.453C19.467,51.076,19.228,51.526,19.228,52.52Z"/>
        <path class="cls-2" d="M23.271,48.39c.038,0,.048.019.048.058V50.14a2.313,2.313,0,0,1,.516-.058c.994,0,1.749.765,1.749,2.247,0,1.73-.984,2.657-2.217,2.657a3.614,3.614,0,0,1-1.109-.172.082.082,0,0,1-.058-.076v-6.29a.051.051,0,0,1,.058-.058Zm.392,2.706a1.187,1.187,0,0,0-.344.047v2.82a.788.788,0,0,0,.2.019c.43,0,.936-.439.946-1.625C24.475,51.43,24.1,51.1,23.663,51.1Z"/>
        <path class="cls-2" d="M27.133,52.8c0,.736.277,1.185,1.051,1.185a1.965,1.965,0,0,0,.727-.133c.048-.019.076-.019.076.047v.794c0,.067-.019.105-.067.124a2.092,2.092,0,0,1-.946.172c-1.405,0-1.95-1.032-1.95-2.38,0-1.434.631-2.524,1.749-2.524,1.176,0,1.52,1.042,1.52,1.893a5.222,5.222,0,0,1-.048.717c-.009.048-.038.067-.086.076-.095.01-.392.029-.908.029Zm.812-.9a1.68,1.68,0,0,0,.287-.009.411.411,0,0,0,.01-.105c0-.363-.115-.746-.507-.746s-.535.392-.583.86Z"/>
      </g>
    </g>
  </g>
</svg>
