<svg id="Layer_1" data-name="Layer 1" xmlns="http://www.w3.org/2000/svg" width="242.066" height="54" viewBox="0 0 242.066 54">
  <defs>
    <style>
      .cls-1 {
        fill: #584ccc;
      }

      .cls-2 {
        fill: #fff;
      }
    </style>
  </defs>
  <g>
    <g>
      <path d="M77.224,32.393l-1.776,5.476a.4.4,0,0,1-.407.3H70.749c-.26,0-.333-.148-.3-.37l7.4-21.35a6.739,6.739,0,0,0,.37-2.257.248.248,0,0,1,.222-.26h5.92c.185,0,.26.037.3.223l8.4,23.681c.074.185.037.333-.185.333h-4.81a.373.373,0,0,1-.407-.259l-1.887-5.513ZM84.4,27.767c-.741-2.442-2.221-6.919-2.924-9.546h-.036c-.593,2.478-1.925,6.549-2.887,9.546Z"/>
      <path d="M93.307,29.136c0-5.291,3.96-9.732,10.731-9.732.3,0,.666.038,1.221.075V12.19a.234.234,0,0,1,.259-.26h4.663c.185,0,.222.074.222.223V34.021a20.878,20.878,0,0,0,.148,2.7c0,.184-.037.259-.259.333a18.592,18.592,0,0,1-7.29,1.48C97.526,38.535,93.307,35.427,93.307,29.136Zm11.952-5.254a3.834,3.834,0,0,0-1.369-.185c-2.849,0-5.291,1.739-5.291,5.18,0,3.663,2.109,5.255,4.921,5.255a5.189,5.189,0,0,0,1.739-.223Z"/>
      <path d="M131.256,28.877c0,5.81-3.775,9.658-9.1,9.658-6.328,0-9.14-4.773-9.14-9.547,0-5.254,3.515-9.584,9.214-9.584C128.184,19.4,131.256,23.882,131.256,28.877Zm-13.025.037c0,3.256,1.517,5.328,4,5.328,2.146,0,3.774-1.849,3.774-5.254,0-2.886-1.184-5.291-4-5.291C119.859,23.7,118.231,25.621,118.231,28.914Z"/>
      <path d="M138.692,11.93c.295,0,.369.037.369.3v7.586a11.921,11.921,0,0,1,3.109-.408,8.469,8.469,0,0,1,8.88,8.807c0,6.92-5.476,10.324-11.1,10.324a19.374,19.374,0,0,1-5.809-.851.435.435,0,0,1-.222-.37V12.19c0-.186.074-.26.259-.26Zm2.553,11.841a7.544,7.544,0,0,0-2.184.3V34.1a5.8,5.8,0,0,0,1.369.147c2.813,0,5.366-1.7,5.366-5.549C145.8,25.325,143.835,23.771,141.245,23.771Z"/>
      <path d="M157.945,30.321c.186,2.109,1.666,3.848,5.292,3.848a11.48,11.48,0,0,0,4.551-.851c.112-.075.222-.038.222.185v3.515c0,.259-.074.37-.259.444a12.419,12.419,0,0,1-5.661,1.073c-6.957,0-9.4-4.773-9.4-9.362,0-5.106,3.146-9.769,8.955-9.769,5.587,0,7.807,4.33,7.807,7.994a11.784,11.784,0,0,1-.185,2.478.317.317,0,0,1-.3.3,34.256,34.256,0,0,1-3.811.149Zm4.811-3.589a11.811,11.811,0,0,0,1.85-.075V26.4a3.01,3.01,0,0,0-3.145-2.924,3.5,3.5,0,0,0-3.552,3.257Z"/>
      <path d="M179.775,37.239a.608.608,0,0,1-.259-.591v-4.4c0-.184.148-.3.3-.184a12.729,12.729,0,0,0,6.7,1.924c2.812,0,3.923-.962,3.923-2.257,0-1.185-.851-2.035-3.367-3.109l-1.851-.777c-4.551-1.924-5.809-4.218-5.809-7.1,0-4,3.034-7.179,8.917-7.179a13.886,13.886,0,0,1,5.773.963.474.474,0,0,1,.222.48v4.145c0,.148-.111.333-.333.184a11.708,11.708,0,0,0-5.7-1.22c-2.849,0-3.848.961-3.848,2.183,0,1.147.777,1.924,3.552,3.034l1.37.555c4.921,2.035,6.29,4.366,6.29,7.363,0,4.478-3.626,7.29-9.325,7.29A14.447,14.447,0,0,1,179.775,37.239Z"/>
      <path d="M198.159,14.927a2.77,2.77,0,0,1,2.887-2.849,2.68,2.68,0,0,1,2.849,2.849,2.72,2.72,0,0,1-2.886,2.887A2.692,2.692,0,0,1,198.159,14.927Zm.26,5.144c0-.185.073-.3.3-.3h4.551c.222,0,.3.074.3.3V37.832c0,.222-.037.333-.333.333h-4.44c-.26,0-.37-.111-.37-.333Z"/>
      <path d="M216.941,33.872c5.292.26,7.253,2.406,7.253,5.329,0,3.848-3.774,6.956-9.732,6.956-6.18,0-8.881-3.071-8.881-5.735,0-1.184.963-2.664,3.405-4.7a4.657,4.657,0,0,1-.777-2.776,5.133,5.133,0,0,1,.666-2.442,5.319,5.319,0,0,1-2.554-4.773c0-3.552,2.776-6.328,7.586-6.328a21.621,21.621,0,0,1,3.515.3,3.86,3.86,0,0,0,.888.075h5.07c.185,0,.259.074.259.258v3.442c0,.185-.074.259-.259.259-.556,0-1.776-.111-2.554-.185a4.773,4.773,0,0,1,.556,2.405c0,3.922-3.22,5.883-7.327,5.883-.407,0-.851-.036-1.258-.073a1.821,1.821,0,0,0-.074,1,2,2,0,0,0,.407.962Zm-5.254,4.145a3.6,3.6,0,0,0-1.406,1.961c0,1.147,1.628,2.405,4.514,2.405,3.293,0,4.7-1.146,4.7-2.368,0-1.369-1.628-1.739-3.7-1.85Zm-.37-12.359a2.4,2.4,0,0,0,2.627,2.516,2.262,2.262,0,0,0,2.553-2.405,2.591,2.591,0,1,0-5.18-.111Z"/>
      <path d="M225.816,24.067c0-1.258-.074-3.182-.148-4-.037-.185.037-.3.259-.3h3.885a.434.434,0,0,1,.481.3,4.531,4.531,0,0,1,.3,1.221,8.1,8.1,0,0,1,5.254-1.888c2.849,0,6.216,1.481,6.216,7.438v10.99c0,.222-.074.333-.333.333h-4.44c-.259,0-.37-.111-.37-.333V27.286c0-2.22-.962-3.4-2.887-3.4a4.48,4.48,0,0,0-3.071,1.147v12.84c0,.185-.111.3-.333.3h-4.477c-.259,0-.333-.111-.333-.333Z"/>
    </g>
    <g>
      <rect class="cls-1" width="55.385" height="54" rx="9.808"/>
      <g id="Layer_3" data-name="Layer 3">
        <g id="Layer_86" data-name="Layer 86">
          <path id="_64" data-name=" 64" class="cls-2" d="M44.351,31.264c-2.593-2.756-9.763-1.635-11.445-1.354A29.154,29.154,0,0,1,28.118,23.6a28.128,28.128,0,0,0,1.635-8.269c0-2.522-1-5.232-3.808-5.232a2.844,2.844,0,0,0-2.359,1.378c-1.191,2.056-.724,6.307,1.191,10.605a71.691,71.691,0,0,1-4.858,11.4c-2.873,1.145-8.969,3.948-9.553,7.054a2.624,2.624,0,0,0,.84,2.476,3.555,3.555,0,0,0,2.476.888c3.668,0,7.335-5.092,9.811-9.46a62.265,62.265,0,0,1,8.735-2.289c3.878,3.387,7.335,3.9,9.087,3.9,2.382,0,3.27-1.028,3.6-1.892A2.92,2.92,0,0,0,44.351,31.264ZM41.829,33.04c-.117.677-.981,1.354-2.593,1a12.972,12.972,0,0,1-5.092-2.569,21.143,21.143,0,0,1,6.283-.094C41.175,31.521,42.039,31.942,41.829,33.04ZM25.1,12.368a.94.94,0,0,1,.818-.514c.887,0,1.074,1.074,1.074,1.962a27.235,27.235,0,0,1-1.168,6.237C24.334,16.082,24.544,13.326,25.1,12.368Zm-.21,19.41a58.929,58.929,0,0,0,2.313-5.559,29.39,29.39,0,0,0,3.176,4.158A52.416,52.416,0,0,0,24.894,31.778ZM19.031,35.8c-2.359,3.784-4.671,6.166-6.026,6.166a.959.959,0,0,1-.607-.21.87.87,0,0,1-.3-.864C12.351,39.533,15.037,37.571,19.031,35.8Z"/>
        </g>
      </g>
    </g>
  </g>
</svg>
