<svg viewBox="0 0 100 100">
	<path class="base_fill" d="M88.618,19.367,75.568,6.333a3,3,0,0,0-2.143-.882h-.112a3.5,3.5,0,0,0-2.289,1.012l-6.4,6.365,17.459,17.43,6.4-6.37a3.373,3.373,0,0,0,.989-2.176,2.97,2.97,0,0,0-.86-2.351Z"/>
	<path class="base_fill" d="M12.266,82.6,18,66.784,28.117,76.871ZM60.78,16.668,14.038,63.455a2.379,2.379,0,0,0-.619,1.035L6.745,86.621A1.224,1.224,0,0,0,7.5,88.184a1.206,1.206,0,0,0,.8,0c0,.113,18.7-5.4,22.2-6.792a2.866,2.866,0,0,0,1.034-.619L78.21,34.1Z"/>
	<path class="base_fill" d="M64.17,95.477a5.063,5.063,0,0,1-2.249-.332,4.5,4.5,0,0,1-2.564-5.06,2.392,2.392,0,0,1,.062-.366l1.968-7.872L41.707,87.47a2.39,2.39,0,0,1-2.592-3.7,82.569,82.569,0,0,1,19.95-16.177,2.4,2.4,0,0,1,2.159,4.273A78.57,78.57,0,0,0,49.416,80.3l14.619-4.172A2.39,2.39,0,0,1,67.01,79L64.092,90.7v.045a18.533,18.533,0,0,0,6.792-3.014A57.572,57.572,0,0,0,85.256,75.421L78.435,78.1a2.392,2.392,0,0,1-1.394-4.577L84.8,70.557c1.2-.3,4.5-1.125,5.96,1.226s-.562,5.24-2.514,7.506C84.041,84.22,71.7,95.078,64.17,95.477Z"/>
</svg>
