<svg viewBox="0 0 100 100">
	<path class="base_stroke" d="M22.645,69.557h3.738v-29.9H22.645A14.951,14.951,0,0,0,7.7,54.606h0A14.951,14.951,0,0,0,22.645,69.557Z"/>
	<path class="base_stroke" d="M78.71,69.557H74.973v-29.9H78.71a14.951,14.951,0,0,1,14.951,14.95h0A14.951,14.951,0,0,1,78.71,69.557Z"/>
	<path class="base_stroke" d="M22.645,39.656V37.049A28.033,28.033,0,0,1,50.678,9.017h0A28.032,28.032,0,0,1,78.71,37.049v2.607"/>
	<path class="base_stroke" d="M78.71,69.557c0,7.475-3.737,14.951-14.95,14.951"/>
	<path class="base_stroke" d="M58.153,91.983H50.678a5.607,5.607,0,0,1-5.607-5.606h0a5.607,5.607,0,0,1,5.607-5.607h7.475a5.607,5.607,0,0,1,5.607,5.607h0A5.606,5.606,0,0,1,58.153,91.983Z"/>
</svg>
